<?xml version="1.0" encoding="utf-8"?>
<!-- Generator: Adobe Illustrator 25.2.1, SVG Export Plug-In . SVG Version: 6.00 Build 0)  -->
<svg version="1.1" id="Layer_1" xmlns="http://www.w3.org/2000/svg" xmlns:xlink="http://www.w3.org/1999/xlink" x="0px" y="0px"
	 viewBox="0 0 500 500" style="enable-background:new 0 0 500 500;" xml:space="preserve">
<style type="text/css">
	.st0{display:none;}
	.st1{display:inline;fill:none;stroke:#FFB6B6;stroke-width:0.9969;stroke-miterlimit:10;}
	.st2{display:inline;fill:none;stroke:#FFB6B6;stroke-width:0.4448;stroke-miterlimit:10;}
	.st3{fill:#E9D8C7;}
</style>
<g id="Layer_1_1_" class="st0">
	
		<image style="display:inline;overflow:visible;enable-background:new    ;" width="387" height="349" xlink:href="9C0CC0D8.jpg"  transform="matrix(1.4652 0 0 1.4652 -16.6477 -9.0987)">
	</image>
	<polygon class="st1" points="472.9,298.5 414.8,94.1 208.8,42.2 60.8,194.6 118.9,399 324.9,450.9 	"/>
	<polygon class="st2" points="358.8,269.7 332.9,178.6 241,155.4 174.9,223.4 200.8,314.6 292.8,337.8 	"/>
	<line class="st1" x1="208.8" y1="42.2" x2="324.9" y2="450.9"/>
	<line class="st1" x1="118.9" y1="399" x2="414.8" y2="94.1"/>
	<line class="st1" x1="472.9" y1="298.5" x2="60.8" y2="194.6"/>
</g>
<circle class="st3" cx="250" cy="250" r="250"/>
<g>
	<g>
		<path d="M250,193c1.7,9.8,2.6,19.5,3.2,29.3c0.6,9.8,0.9,19.5,0.9,29.3c0,9.8-0.3,19.5-0.9,29.3c-0.6,9.8-1.5,19.5-3.2,29.3
			c-1.7-9.8-2.6-19.5-3.2-29.3c-0.6-9.8-0.9-19.5-0.9-29.3c0-9.8,0.3-19.5,0.9-29.3C247.4,212.6,248.3,202.8,250,193z"/>
	</g>
	<g>
		<path d="M199.2,222.3c9.3,3.4,18.2,7.5,27,11.9c8.8,4.4,17.4,9,25.8,13.9c8.5,4.9,16.8,10,24.9,15.4c8.1,5.4,16.2,11.1,23.8,17.4
			c-9.3-3.4-18.2-7.5-27-11.9c-8.8-4.4-17.4-9-25.8-13.9c-8.5-4.9-16.8-10-24.9-15.4C214.9,234.3,206.9,228.7,199.2,222.3z"/>
	</g>
	<path d="M435.1,235.9c-10.9-17.8-30.5-28.5-54.6-32.1c-17.1-17.2,86-78.8,86-78.8L251.2,249.3l0.3-0.2
		c-60.8,33.8-127.7,30.2-152.8-7.5c-27.2-40.9,3.3-108.9,68-152c62.7-41.7,134.6-44.7,163.8-7.6c-33.1-42.9-115.7-39.7-187.8,8.2
		C68.6,139.5,35.4,216.2,64.9,264.1c10.7,17.4,29.6,28,53.1,31.9c33.4,10.5-84.5,79.1-84.5,79.1l236.2-134.5
		c54.6-22.6,109.2-15.7,131.6,17.9c27.2,40.9-3.3,108.9-68,152c-62.7,41.7-134.6,44.7-163.8,7.6c33.1,42.9,115.7,39.7,187.8-8.2
		C431.4,360.6,464.5,283.8,435.1,235.9z"/>
	<g>
		<path d="M227.2,264.8c3.1-3.5,6.5-6.3,10-9c3.5-2.6,7.2-5,11-7.2c3.8-2.2,7.7-4.2,11.8-5.9c4.1-1.7,8.2-3.2,12.8-4.2
			c-3.1,3.5-6.5,6.3-10,9c-3.5,2.6-7.2,5-11,7.2s-7.7,4.2-11.8,5.9C235.9,262.3,231.7,263.9,227.2,264.8z"/>
	</g>
</g>
</svg>
